<svg width="1922" class="line" height="352" viewBox="0 0 1922 352"
  xmlns="http://www.w3.org/2000/svg">
  <path
    class="line_path"
    d="M1 173.62L1 65.26H61V173.62V321.94H121V173.62V25.3H181V173.62V196.66H241V173.62V150.58H301V173.62V241.48H361V173.62V105.76H421V173.62V302.5H481V173.62V44.74H541V173.62V250.12H601V173.62V97.12H661V173.62V262.18H721V173.62V85.06H781V173.62V304.12H841V173.62V43.12H901V173.62V233.02H961V173.62V114.22H1021V173.62V230.86H1081V173.62V116.38H1141V173.62V285.4H1201V173.62V61.84H1261V173.62V210.52H1321V173.62V136.72H1381V173.62V278.56H1441V173.62V68.68H1501V173.62V345.16H1561V173.62V2.08H1621V173.62V274.24H1681V173.62V73H1741V173.62V346.24H1801V173.62V1H1861V173.62V350.92H1921V173.62"
  />
</svg>